<mxfile host="app.diagrams.net" modified="2024-05-28T19:07:29.721Z" agent="Mozilla/5.0 (Windows NT 10.0; Win64; x64) AppleWebKit/537.36 (KHTML, like Gecko) Chrome/125.0.0.0 Safari/537.36" etag="5vr_fpXRL7aBbT4L1SGZ" version="24.4.9" type="device">
  <diagram name="PÃ¡gina-1" id="lQLK7BtLyZgiqH-HvJOF">
    <mxGraphModel dx="1185" dy="627" grid="1" gridSize="10" guides="1" tooltips="1" connect="1" arrows="1" fold="1" page="1" pageScale="1" pageWidth="1169" pageHeight="827" math="0" shadow="0">
      <root>
        <mxCell id="0" />
        <mxCell id="1" parent="0" />
        <mxCell id="WpaO6VWz3TbkdXyhlN8X-18" value="" style="rounded=0;whiteSpace=wrap;html=1;" vertex="1" parent="1">
          <mxGeometry x="240" y="150" width="700" height="490" as="geometry" />
        </mxCell>
        <mxCell id="3_b3GaQCmQUuq4iXxtKN-2" value="T" style="rounded=0;whiteSpace=wrap;html=1;fillColor=#ffe6cc;strokeColor=#d79b00;" parent="1" vertex="1">
          <mxGeometry x="453" y="200" width="90" height="70" as="geometry" />
        </mxCell>
        <mxCell id="3_b3GaQCmQUuq4iXxtKN-3" value="" style="rounded=0;whiteSpace=wrap;html=1;fillColor=#e1d5e7;strokeColor=#9673a6;" parent="1" vertex="1">
          <mxGeometry x="330" y="479" width="240" height="120" as="geometry" />
        </mxCell>
        <mxCell id="3_b3GaQCmQUuq4iXxtKN-4" value="" style="rounded=0;whiteSpace=wrap;html=1;fillColor=#d5e8d4;strokeColor=#82b366;" parent="1" vertex="1">
          <mxGeometry x="664" y="210" width="190" height="190" as="geometry" />
        </mxCell>
        <mxCell id="3_b3GaQCmQUuq4iXxtKN-6" value="" style="endArrow=classic;html=1;rounded=0;exitX=1;exitY=0.5;exitDx=0;exitDy=0;entryX=-0.001;entryY=0.801;entryDx=0;entryDy=0;entryPerimeter=0;" parent="1" source="3_b3GaQCmQUuq4iXxtKN-3" target="3_b3GaQCmQUuq4iXxtKN-4" edge="1">
          <mxGeometry width="50" height="50" relative="1" as="geometry">
            <mxPoint x="510" y="451" as="sourcePoint" />
            <mxPoint x="660" y="360" as="targetPoint" />
            <Array as="points">
              <mxPoint x="620" y="539" />
              <mxPoint x="621" y="363" />
            </Array>
          </mxGeometry>
        </mxCell>
        <mxCell id="3_b3GaQCmQUuq4iXxtKN-7" value="Target" style="text;html=1;align=center;verticalAlign=middle;resizable=0;points=[];autosize=1;strokeColor=none;fillColor=none;" parent="1" vertex="1">
          <mxGeometry x="468" y="170" width="60" height="30" as="geometry" />
        </mxCell>
        <mxCell id="3_b3GaQCmQUuq4iXxtKN-8" value="Generador" style="text;html=1;align=center;verticalAlign=middle;resizable=0;points=[];autosize=1;strokeColor=none;fillColor=none;" parent="1" vertex="1">
          <mxGeometry x="415" y="450" width="80" height="30" as="geometry" />
        </mxCell>
        <mxCell id="3_b3GaQCmQUuq4iXxtKN-9" value="Discriminador" style="text;html=1;align=center;verticalAlign=middle;resizable=0;points=[];autosize=1;strokeColor=none;fillColor=none;" parent="1" vertex="1">
          <mxGeometry x="709" y="180" width="100" height="30" as="geometry" />
        </mxCell>
        <mxCell id="3_b3GaQCmQUuq4iXxtKN-10" value="" style="endArrow=classic;html=1;rounded=0;exitX=1;exitY=0.5;exitDx=0;exitDy=0;" parent="1" source="3_b3GaQCmQUuq4iXxtKN-4" edge="1">
          <mxGeometry width="50" height="50" relative="1" as="geometry">
            <mxPoint x="864" y="340" as="sourcePoint" />
            <mxPoint x="880" y="280" as="targetPoint" />
          </mxGeometry>
        </mxCell>
        <mxCell id="3_b3GaQCmQUuq4iXxtKN-11" value="Real" style="text;html=1;align=center;verticalAlign=middle;resizable=0;points=[];autosize=1;strokeColor=none;fillColor=none;" parent="1" vertex="1">
          <mxGeometry x="870" y="260" width="50" height="30" as="geometry" />
        </mxCell>
        <mxCell id="3_b3GaQCmQUuq4iXxtKN-12" value="" style="endArrow=classic;html=1;rounded=0;exitX=1;exitY=0.5;exitDx=0;exitDy=0;" parent="1" source="3_b3GaQCmQUuq4iXxtKN-4" edge="1">
          <mxGeometry width="50" height="50" relative="1" as="geometry">
            <mxPoint x="864" y="355" as="sourcePoint" />
            <mxPoint x="880" y="320" as="targetPoint" />
          </mxGeometry>
        </mxCell>
        <mxCell id="3_b3GaQCmQUuq4iXxtKN-13" value="Falso" style="text;html=1;align=center;verticalAlign=middle;resizable=0;points=[];autosize=1;strokeColor=none;fillColor=none;" parent="1" vertex="1">
          <mxGeometry x="870" y="310" width="50" height="30" as="geometry" />
        </mxCell>
        <mxCell id="3_b3GaQCmQUuq4iXxtKN-15" value="" style="edgeStyle=orthogonalEdgeStyle;rounded=0;orthogonalLoop=1;jettySize=auto;html=1;" parent="1" source="3_b3GaQCmQUuq4iXxtKN-16" target="3_b3GaQCmQUuq4iXxtKN-26" edge="1">
          <mxGeometry relative="1" as="geometry" />
        </mxCell>
        <mxCell id="3_b3GaQCmQUuq4iXxtKN-16" value="I" style="rounded=0;whiteSpace=wrap;html=1;fillColor=#ffe6cc;strokeColor=#d79b00;" parent="1" vertex="1">
          <mxGeometry x="355" y="519" width="40" height="40" as="geometry" />
        </mxCell>
        <mxCell id="3_b3GaQCmQUuq4iXxtKN-17" value="" style="endArrow=classic;html=1;rounded=0;exitX=0;exitY=0.5;exitDx=0;exitDy=0;entryX=0;entryY=0.5;entryDx=0;entryDy=0;" parent="1" source="3_b3GaQCmQUuq4iXxtKN-3" target="3_b3GaQCmQUuq4iXxtKN-16" edge="1">
          <mxGeometry width="50" height="50" relative="1" as="geometry">
            <mxPoint x="360" y="549" as="sourcePoint" />
            <mxPoint x="410" y="499" as="targetPoint" />
          </mxGeometry>
        </mxCell>
        <mxCell id="3_b3GaQCmQUuq4iXxtKN-18" value="I" style="rounded=0;whiteSpace=wrap;html=1;fillColor=#ffe6cc;strokeColor=#d79b00;" parent="1" vertex="1">
          <mxGeometry x="683" y="303" width="30" height="30" as="geometry" />
        </mxCell>
        <mxCell id="3_b3GaQCmQUuq4iXxtKN-19" value="F" style="rounded=0;whiteSpace=wrap;html=1;fillColor=#fff2cc;strokeColor=#d6b656;" parent="1" vertex="1">
          <mxGeometry x="683" y="347" width="30" height="30" as="geometry" />
        </mxCell>
        <mxCell id="3_b3GaQCmQUuq4iXxtKN-20" value="D" style="rounded=0;whiteSpace=wrap;html=1;" parent="1" vertex="1">
          <mxGeometry x="749" y="320" width="60" height="50" as="geometry" />
        </mxCell>
        <mxCell id="3_b3GaQCmQUuq4iXxtKN-23" value="" style="endArrow=classic;html=1;rounded=0;exitX=0;exitY=0.274;exitDx=0;exitDy=0;exitPerimeter=0;entryX=0;entryY=0.25;entryDx=0;entryDy=0;" parent="1" target="3_b3GaQCmQUuq4iXxtKN-20" edge="1">
          <mxGeometry width="50" height="50" relative="1" as="geometry">
            <mxPoint x="713" y="319.9" as="sourcePoint" />
            <mxPoint x="732" y="319.9" as="targetPoint" />
          </mxGeometry>
        </mxCell>
        <mxCell id="3_b3GaQCmQUuq4iXxtKN-24" value="" style="endArrow=classic;html=1;rounded=0;exitX=1;exitY=0.5;exitDx=0;exitDy=0;entryX=0;entryY=0.75;entryDx=0;entryDy=0;" parent="1" source="3_b3GaQCmQUuq4iXxtKN-19" target="3_b3GaQCmQUuq4iXxtKN-20" edge="1">
          <mxGeometry width="50" height="50" relative="1" as="geometry">
            <mxPoint x="723" y="329.9" as="sourcePoint" />
            <mxPoint x="759" y="337" as="targetPoint" />
          </mxGeometry>
        </mxCell>
        <mxCell id="3_b3GaQCmQUuq4iXxtKN-25" value="" style="endArrow=classic;html=1;rounded=0;exitX=1;exitY=0.5;exitDx=0;exitDy=0;entryX=1;entryY=0.5;entryDx=0;entryDy=0;" parent="1" source="3_b3GaQCmQUuq4iXxtKN-20" target="3_b3GaQCmQUuq4iXxtKN-4" edge="1">
          <mxGeometry width="50" height="50" relative="1" as="geometry">
            <mxPoint x="818" y="344" as="sourcePoint" />
            <mxPoint x="854" y="351.1" as="targetPoint" />
          </mxGeometry>
        </mxCell>
        <mxCell id="3_b3GaQCmQUuq4iXxtKN-26" value="G" style="rounded=0;whiteSpace=wrap;html=1;" parent="1" vertex="1">
          <mxGeometry x="421" y="514" width="60" height="50" as="geometry" />
        </mxCell>
        <mxCell id="3_b3GaQCmQUuq4iXxtKN-27" value="F" style="rounded=0;whiteSpace=wrap;html=1;fillColor=#fff2cc;strokeColor=#d6b656;" parent="1" vertex="1">
          <mxGeometry x="503" y="518.25" width="40" height="41.5" as="geometry" />
        </mxCell>
        <mxCell id="3_b3GaQCmQUuq4iXxtKN-28" value="" style="endArrow=classic;html=1;rounded=0;exitX=1;exitY=0.5;exitDx=0;exitDy=0;entryX=0;entryY=0.5;entryDx=0;entryDy=0;" parent="1" source="3_b3GaQCmQUuq4iXxtKN-26" target="3_b3GaQCmQUuq4iXxtKN-27" edge="1">
          <mxGeometry width="50" height="50" relative="1" as="geometry">
            <mxPoint x="490" y="539" as="sourcePoint" />
            <mxPoint x="540" y="489" as="targetPoint" />
          </mxGeometry>
        </mxCell>
        <mxCell id="3_b3GaQCmQUuq4iXxtKN-29" value="" style="endArrow=classic;html=1;rounded=0;entryX=1;entryY=0.5;entryDx=0;entryDy=0;exitX=1;exitY=0.5;exitDx=0;exitDy=0;" parent="1" source="3_b3GaQCmQUuq4iXxtKN-27" target="3_b3GaQCmQUuq4iXxtKN-3" edge="1">
          <mxGeometry width="50" height="50" relative="1" as="geometry">
            <mxPoint x="550" y="539" as="sourcePoint" />
            <mxPoint x="600" y="489" as="targetPoint" />
          </mxGeometry>
        </mxCell>
        <mxCell id="3_b3GaQCmQUuq4iXxtKN-30" value="D: Discriminador&lt;div&gt;G: Generador&lt;/div&gt;&lt;div&gt;I: Input&lt;/div&gt;&lt;div&gt;T: Target&lt;/div&gt;" style="text;html=1;align=left;verticalAlign=middle;whiteSpace=wrap;rounded=0;" parent="1" vertex="1">
          <mxGeometry x="673.5" y="454" width="171" height="65" as="geometry" />
        </mxCell>
        <mxCell id="WpaO6VWz3TbkdXyhlN8X-1" value="I" style="rounded=0;whiteSpace=wrap;html=1;fillColor=#ffe6cc;strokeColor=#d79b00;" vertex="1" parent="1">
          <mxGeometry x="330" y="268" width="90" height="70" as="geometry" />
        </mxCell>
        <mxCell id="WpaO6VWz3TbkdXyhlN8X-2" value="Input" style="text;html=1;align=center;verticalAlign=middle;resizable=0;points=[];autosize=1;strokeColor=none;fillColor=none;" vertex="1" parent="1">
          <mxGeometry x="350" y="238" width="50" height="30" as="geometry" />
        </mxCell>
        <mxCell id="WpaO6VWz3TbkdXyhlN8X-3" value="T" style="rounded=0;whiteSpace=wrap;html=1;fillColor=#ffe6cc;strokeColor=#d79b00;" vertex="1" parent="1">
          <mxGeometry x="683" y="218" width="30" height="30" as="geometry" />
        </mxCell>
        <mxCell id="WpaO6VWz3TbkdXyhlN8X-4" value="I" style="rounded=0;whiteSpace=wrap;html=1;fillColor=#fff2cc;strokeColor=#d6b656;" vertex="1" parent="1">
          <mxGeometry x="683" y="262" width="30" height="30" as="geometry" />
        </mxCell>
        <mxCell id="WpaO6VWz3TbkdXyhlN8X-5" value="D" style="rounded=0;whiteSpace=wrap;html=1;" vertex="1" parent="1">
          <mxGeometry x="749" y="235" width="60" height="50" as="geometry" />
        </mxCell>
        <mxCell id="WpaO6VWz3TbkdXyhlN8X-6" value="" style="endArrow=classic;html=1;rounded=0;exitX=0;exitY=0.274;exitDx=0;exitDy=0;exitPerimeter=0;entryX=0;entryY=0.25;entryDx=0;entryDy=0;" edge="1" parent="1" target="WpaO6VWz3TbkdXyhlN8X-5">
          <mxGeometry width="50" height="50" relative="1" as="geometry">
            <mxPoint x="713" y="234.89999999999998" as="sourcePoint" />
            <mxPoint x="732" y="234.89999999999998" as="targetPoint" />
          </mxGeometry>
        </mxCell>
        <mxCell id="WpaO6VWz3TbkdXyhlN8X-7" value="" style="endArrow=classic;html=1;rounded=0;exitX=1;exitY=0.5;exitDx=0;exitDy=0;entryX=0;entryY=0.75;entryDx=0;entryDy=0;" edge="1" parent="1" source="WpaO6VWz3TbkdXyhlN8X-4" target="WpaO6VWz3TbkdXyhlN8X-5">
          <mxGeometry width="50" height="50" relative="1" as="geometry">
            <mxPoint x="723" y="244.89999999999998" as="sourcePoint" />
            <mxPoint x="759" y="252" as="targetPoint" />
          </mxGeometry>
        </mxCell>
        <mxCell id="WpaO6VWz3TbkdXyhlN8X-8" value="" style="endArrow=classic;html=1;rounded=0;exitX=1;exitY=0.5;exitDx=0;exitDy=0;entryX=0;entryY=0.5;entryDx=0;entryDy=0;" edge="1" parent="1" source="WpaO6VWz3TbkdXyhlN8X-1" target="3_b3GaQCmQUuq4iXxtKN-4">
          <mxGeometry width="50" height="50" relative="1" as="geometry">
            <mxPoint x="380" y="310" as="sourcePoint" />
            <mxPoint x="430" y="260" as="targetPoint" />
          </mxGeometry>
        </mxCell>
        <mxCell id="WpaO6VWz3TbkdXyhlN8X-9" value="" style="endArrow=classic;html=1;rounded=0;exitX=1;exitY=0.5;exitDx=0;exitDy=0;entryX=0.001;entryY=0.122;entryDx=0;entryDy=0;entryPerimeter=0;" edge="1" parent="1" source="3_b3GaQCmQUuq4iXxtKN-2" target="3_b3GaQCmQUuq4iXxtKN-4">
          <mxGeometry width="50" height="50" relative="1" as="geometry">
            <mxPoint x="610" y="220" as="sourcePoint" />
            <mxPoint x="660" y="170" as="targetPoint" />
          </mxGeometry>
        </mxCell>
        <mxCell id="WpaO6VWz3TbkdXyhlN8X-10" value="" style="endArrow=classic;html=1;rounded=0;exitX=0;exitY=0.5;exitDx=0;exitDy=0;entryX=0;entryY=0.5;entryDx=0;entryDy=0;" edge="1" parent="1" source="3_b3GaQCmQUuq4iXxtKN-4" target="WpaO6VWz3TbkdXyhlN8X-4">
          <mxGeometry width="50" height="50" relative="1" as="geometry">
            <mxPoint x="560" y="315" as="sourcePoint" />
            <mxPoint x="674" y="315" as="targetPoint" />
          </mxGeometry>
        </mxCell>
        <mxCell id="WpaO6VWz3TbkdXyhlN8X-11" value="" style="endArrow=classic;html=1;rounded=0;exitX=0;exitY=0.5;exitDx=0;exitDy=0;entryX=0;entryY=0.5;entryDx=0;entryDy=0;" edge="1" parent="1" source="3_b3GaQCmQUuq4iXxtKN-4" target="3_b3GaQCmQUuq4iXxtKN-18">
          <mxGeometry width="50" height="50" relative="1" as="geometry">
            <mxPoint x="672" y="314" as="sourcePoint" />
            <mxPoint x="693" y="287" as="targetPoint" />
          </mxGeometry>
        </mxCell>
        <mxCell id="WpaO6VWz3TbkdXyhlN8X-12" value="" style="endArrow=classic;html=1;rounded=0;exitX=-0.001;exitY=0.122;exitDx=0;exitDy=0;entryX=0;entryY=0.5;entryDx=0;entryDy=0;exitPerimeter=0;" edge="1" parent="1" source="3_b3GaQCmQUuq4iXxtKN-4" target="WpaO6VWz3TbkdXyhlN8X-3">
          <mxGeometry width="50" height="50" relative="1" as="geometry">
            <mxPoint x="674" y="315" as="sourcePoint" />
            <mxPoint x="693" y="287" as="targetPoint" />
          </mxGeometry>
        </mxCell>
        <mxCell id="WpaO6VWz3TbkdXyhlN8X-13" value="" style="endArrow=classic;html=1;rounded=0;exitX=0.002;exitY=0.801;exitDx=0;exitDy=0;entryX=0;entryY=0.5;entryDx=0;entryDy=0;exitPerimeter=0;" edge="1" parent="1" source="3_b3GaQCmQUuq4iXxtKN-4" target="3_b3GaQCmQUuq4iXxtKN-19">
          <mxGeometry width="50" height="50" relative="1" as="geometry">
            <mxPoint x="664" y="370" as="sourcePoint" />
            <mxPoint x="683" y="342" as="targetPoint" />
          </mxGeometry>
        </mxCell>
        <mxCell id="WpaO6VWz3TbkdXyhlN8X-14" value="" style="endArrow=classic;html=1;rounded=0;exitX=1;exitY=0.5;exitDx=0;exitDy=0;entryX=1;entryY=0.5;entryDx=0;entryDy=0;" edge="1" parent="1" source="WpaO6VWz3TbkdXyhlN8X-5" target="3_b3GaQCmQUuq4iXxtKN-4">
          <mxGeometry width="50" height="50" relative="1" as="geometry">
            <mxPoint x="819" y="355" as="sourcePoint" />
            <mxPoint x="864" y="315" as="targetPoint" />
          </mxGeometry>
        </mxCell>
        <mxCell id="WpaO6VWz3TbkdXyhlN8X-17" value="" style="endArrow=classic;html=1;rounded=0;exitX=0.5;exitY=1;exitDx=0;exitDy=0;entryX=0;entryY=0.5;entryDx=0;entryDy=0;" edge="1" parent="1" source="WpaO6VWz3TbkdXyhlN8X-1" target="3_b3GaQCmQUuq4iXxtKN-3">
          <mxGeometry width="50" height="50" relative="1" as="geometry">
            <mxPoint x="490" y="430" as="sourcePoint" />
            <mxPoint x="300" y="431" as="targetPoint" />
            <Array as="points">
              <mxPoint x="375" y="450" />
              <mxPoint x="280" y="450" />
              <mxPoint x="280" y="540" />
            </Array>
          </mxGeometry>
        </mxCell>
      </root>
    </mxGraphModel>
  </diagram>
</mxfile>
